<?xml version="1.0" encoding="utf-8"?><svg viewBox="0 0 192 192" xmlns="http://www.w3.org/2000/svg" xmlns:xlink="http://www.w3.org/1999/xlink"><style>:root>svg{display:none}:root>svg:target{display:block}</style><svg viewBox="0 0 256 256" id="arrow-down" xmlns="http://www.w3.org/2000/svg"><path fill="none" d="M0 0h256v256H0z"/><path fill="none" stroke="#000" stroke-linecap="round" stroke-linejoin="round" stroke-width="16" d="M208 96l-80 80-80-80"/></svg><svg viewBox="0 0 256 256" id="caret-down" xmlns="http://www.w3.org/2000/svg"><path fill="none" d="M0 0h256v256H0z"/><path d="M215.4 92.9A8 8 0 00208 88H48a8 8 0 00-7.4 4.9 8.4 8.4 0 001.7 8.8l80 80a8.2 8.2 0 0011.4 0l80-80a8.4 8.4 0 001.7-8.8z"/></svg><svg fill="none" viewBox="0 0 16 12" id="checkmark" xmlns="http://www.w3.org/2000/svg"><path d="M5.5 9.477L2.025 6.002.842 7.177 5.5 11.835l10-10L14.325.66 5.5 9.477z" fill="#434343"/></svg><svg fill="none" viewBox="0 0 28 38" id="cta-icon-1" xmlns="http://www.w3.org/2000/svg"><path d="M8 0C6.898 0 6 .898 6 2v6h16V2c0-1.102-.898-2-2-2H8zM6 10c0 4.422 3.578 8 8 8 4.422 0 8-3.578 8-8H6zm6 12l1.188 1.188L12 28l2 4 2-4-1.188-4.813L16 22h-4zm-3.625.875C2.148 24.945 0 30 0 30v8h28v-8s-2.148-5.055-8.375-7.125L14 36 8.375 22.875zM18 32h6v2h-6v-2z" fill="#fff"/></svg><svg fill="none" viewBox="0 0 39 39" id="dribble" xmlns="http://www.w3.org/2000/svg"><path d="M4.5.75A3.757 3.757 0 00.75 4.5v30a3.757 3.757 0 003.75 3.75h30a3.757 3.757 0 003.75-3.75v-30A3.757 3.757 0 0034.5.75h-30zM19.969 4.5c1.89 0 4.16 1.838 4.16 10.605 0 3.135-.916 7.8-2.695 11.543.776 1.055 1.516 1.524 2.05 1.524.725-.147 2.351-3.04 3.223-5.8.242-.763 1.018-1.18 1.758-.938.754.22 1.157 1.076.937 1.816-.74 2.351-2.805 7.793-5.918 7.793-.981 0-2.256-.476-3.515-1.758-1.428 2-3.238 3.34-5.332 3.34-4.431 0-6.387-4.036-6.387-7.5 0-3.684 1.882-7.148 5.977-7.148.688 0 1.318.146 1.875.351a49.186 49.186 0 01-.118-3.398c0-.11 0-10.43 3.985-10.43zm.117 3.047c-.593 1.04-1.29 4.123-1.29 7.383 0 3.523.404 6.24.997 8.261.908-2.592 1.523-5.551 1.523-8.085 0-4.783-.783-6.893-1.23-7.56zm-6.387 13.3c-2.534.506-2.578 4.615-2.578 4.805 0 1.238.308 4.102 3.516 4.102 1.237 0 2.497-1.172 3.574-2.988-.652-1.26-1.252-2.82-1.64-4.805-.096-.059-.177-.161-.235-.234 0 0-.908-.88-2.11-.88-.19 0-.358-.036-.527 0z" fill="#fff"/></svg></svg>