<svg width="450" height="450" fill="none" xmlns="http://www.w3.org/2000/svg"><path d="M50 0C36.914 0 23.535 4.59 14.062 14.063 4.59 23.535 0 36.913 0 50v350c0 13.086 4.59 26.465 14.063 35.938C23.535 445.41 36.913 450 50 450h350c13.086 0 26.465-4.59 35.938-14.062C445.41 426.465 450 413.086 450 400V50c0-13.086-4.59-26.465-14.062-35.938C426.465 4.59 413.086 0 400 0H50Zm0 50h350v250h-57.812l-31.25-83.594c-3.614-9.765-12.989-16.308-23.438-16.308-10.449 0-19.824 6.543-23.438 16.308L232.812 300h-25l-33.593-179.688c-2.344-12.89-14.356-21.777-27.344-20.312-10.645 1.562-19.141 9.668-21.094 20.312L92.187 300H50V50Zm100 208.594 13.281 71.094A25.058 25.058 0 0 0 187.5 350H250c10.449 0 19.824-6.543 23.438-16.406l14.062-37.5 14.062 37.5C305.176 343.457 314.551 350 325 350h75v50H50v-50h62.5a25.058 25.058 0 0 0 24.219-20.312L150 258.594Z" fill="#22B4B4"/></svg>