<svg width="73" height="66" fill="none" xmlns="http://www.w3.org/2000/svg"><path d="M64.043.652a3.57 3.57 0 0 0-1.42.076L8.017 14.95h28.443l21.346-5.557a5.358 5.358 0 0 0 3.968 2.33l.847 3.227h7.405L66.989 3.297A3.583 3.583 0 0 0 64.043.652ZM4.47 22.117A3.584 3.584 0 0 0 .887 25.7v35.833a3.584 3.584 0 0 0 3.583 3.584h64.5a3.583 3.583 0 0 0 3.583-3.584V25.7a3.583 3.583 0 0 0-3.583-3.584H4.47Zm6.852 7.166h50.796a5.374 5.374 0 0 0 3.269 3.269v22.13a5.374 5.374 0 0 0-3.269 3.268H11.322a5.376 5.376 0 0 0-3.269-3.269v-22.13a5.375 5.375 0 0 0 3.269-3.268Zm25.398 3.584a10.75 10.75 0 1 0 0 21.5 10.75 10.75 0 0 0 0-21.5Zm-17.917 7.166a3.582 3.582 0 0 0-3.583 3.584 3.582 3.582 0 0 0 3.583 3.583 3.582 3.582 0 0 0 3.584-3.584 3.582 3.582 0 0 0-3.584-3.583Zm35.834 0a3.582 3.582 0 0 0-3.584 3.584 3.582 3.582 0 0 0 3.584 3.583 3.582 3.582 0 0 0 3.583-3.584 3.582 3.582 0 0 0-3.583-3.583Z" fill="#22B4B4"/></svg>