<svg width="450" height="427" fill="none" xmlns="http://www.w3.org/2000/svg"><path d="M331.255 0 283.84 47.415c-17.341.136-32.288 9.633-40.429 23.638H137.988c-9.448-27.97-35.094-47.369-66.935-47.369C30.79 23.684 0 54.474 0 94.737c0 34.884 23.148 62.59 55.51 69.387l52.549 120.087H71.053c-26.053 0-47.369 21.315-47.369 47.368v94.737h402.632v-94.737c0-26.053-21.316-47.368-47.369-47.368H179.112l-59.858-136.879c8.504-7.762 14.915-17.605 18.734-28.911h105.423c8.141 14.005 23.088 23.501 40.429 23.638l47.415 47.415H450v-47.369h-99.131L303.5 94.737l47.369-47.369H450V0H331.255Z" fill="#22B4B4"/></svg>