<svg width="500" height="479" fill="none" xmlns="http://www.w3.org/2000/svg"><path d="M271.739 0a10.87 10.87 0 1 0 0 21.74 10.87 10.87 0 0 0 0-21.74Zm97.826 0c-35.761 0-65.217 29.456-65.217 65.217 0 28.112 18.319 52.069 43.478 61.142v47.554h43.478v-47.554c25.16-9.073 43.479-33.03 43.479-61.142C434.783 29.457 405.326 0 369.565 0Zm97.826 0a10.872 10.872 0 0 0-10.869 10.87A10.87 10.87 0 1 0 467.391 0ZM43.478 43.478C19.456 43.478 0 62.935 0 86.957v260.869c0 24.022 19.456 43.478 43.478 43.478h152.174c0 24.022-19.456 43.479-43.478 43.479v43.478h173.913v-43.478c-24.022 0-43.478-19.457-43.478-43.479h152.174c24.021 0 43.478-19.456 43.478-43.478V173.913h-43.478v130.435H43.478V86.956h152.174V43.479H43.478Zm326.087 0c12.264 0 21.739 9.476 21.739 21.74 0 12.263-9.475 21.739-21.739 21.739-12.263 0-21.739-9.476-21.739-21.74 0-12.263 9.476-21.739 21.739-21.739ZM250 65.218a10.869 10.869 0 1 0 0 21.737 10.869 10.869 0 0 0 0-21.738Zm239.13 0a10.872 10.872 0 0 0-10.869 10.869 10.87 10.87 0 0 0 10.869 10.87 10.869 10.869 0 1 0 0-21.74Zm-250 260.869c12 0 21.74 9.739 21.74 21.739s-9.74 21.739-21.74 21.739c-12 0-21.739-9.739-21.739-21.739s9.739-21.739 21.739-21.739Z" fill="#22B4B4"/></svg>