<svg width="450" height="482" fill="none" xmlns="http://www.w3.org/2000/svg"><path d="M44.996 0C20.136 0 0 20.136 0 44.996v67.493h359.965V44.996C359.965 20.136 339.829 0 314.969 0H44.996ZM0 157.485v134.986h359.965V157.485H0Zm418.187 157.484L314.925 418.231l-58.178-58.178-31.813 31.813 89.991 89.991L450 346.783l-31.813-31.814ZM0 337.467v67.493c0 24.861 20.136 44.996 44.996 44.996h174.402L196.9 427.458l-3.779-3.779-16.522-16.521c-8.437-8.46-8.437-22.124 0-30.583l16.522-16.522 22.585-22.586H0Z" fill="#22B4B4"/></svg>