<svg width="414" height="460" fill="none" xmlns="http://www.w3.org/2000/svg"><path d="M207 .834C105.128.834 13.283 59.647 24.383 197.058c-.18 3.402-.716 6.535-.716 10.026 0 4.476 1.074 10.116 1.432 15.039C11.939 232.06.75 245.398.75 264.376c0 26.945 20.052 46.102 45.117 52.278 13.607 35.36 32.674 68.929 58.008 94.532 27.93 28.287 63.379 47.981 103.125 47.981s74.837-19.783 102.409-47.981c25.065-25.692 44.311-59.351 58.724-94.532 25.065-6.176 45.117-25.333 45.117-52.278 0-18.978-11.19-32.316-24.349-42.253.627-4.386 1.432-7.251 1.432-15.039 0-6.982-.089-13.517-.716-20.052C394.272 56.782 306.365.834 207 .834Zm-55.143 123.893c34.375 62.573 129.891 23.723 186.914 40.821 1.701 5.639 3.402 11.995 4.297 18.619H70.932c.18-1.432.448-2.954.716-4.297 26.408-20.589 47.087-3.133 80.209-55.143Zm-36.524 93.815 68.75 22.917c0 18.351-16.023 34.375-34.375 34.375-18.351 0-34.375-20.589-34.375-57.292Zm183.334 0c0 36.703-16.024 57.292-34.375 57.292-18.352 0-34.375-16.024-34.375-34.375l68.75-22.917Zm43.685 25.065v5.013l15.755 5.73c6.535 2.148 9.31 4.923 9.31 10.026 0 4.923-6.535 11.458-11.459 11.458H335.19l-5.013 15.039c-12.801 34.196-32.047 65.885-53.711 88.086-21.663 22.201-45.028 34.375-69.466 34.375-24.438 0-48.25-12.174-70.182-34.375-21.932-22.201-40.642-53.621-52.279-87.37l-5.73-15.755H58.043c-4.924 0-11.459-6.535-11.459-11.458 0-5.103 2.775-7.878 9.31-10.026l15.755-5.73 30.079 50.131c9.13 13.785 22.648 22.916 38.671 22.916 11.459 0 25.334-4.476 32.227-13.606l18.62-18.62c9.131-9.131 20.231-9.131 29.362 0l18.62 18.62c9.13 9.13 20.768 13.606 32.226 13.606 16.024 0 31.779-9.131 38.672-22.916l30.078-50.131 2.149-5.013Z" fill="#22B4B4"/></svg>