<svg width="80" height="98" fill="none" xmlns="http://www.w3.org/2000/svg"><path d="m35.625 0-.104 13.329 8.889.069.104-13.329L35.625 0ZM13.333 7.08 7.05 13.364l9.948 9.945 6.284-6.283-9.948-9.944Zm53.334 0-9.948 9.945 6.285 6.283 9.947-9.945-6.284-6.282ZM40 22.25c-9.774 0-17.778 8-17.778 17.771v13.33h-4.444a4.452 4.452 0 0 0-4.445 4.442v35.543a4.452 4.452 0 0 0 4.445 4.443h44.444a4.452 4.452 0 0 0 4.445-4.443V57.792a4.452 4.452 0 0 0-4.445-4.443h-4.444V40.021c0-9.771-8.004-17.772-17.778-17.772Zm0 8.886c4.965 0 8.889 3.922 8.889 8.885v13.33H31.11V40.02c0-4.963 3.924-8.885 8.889-8.885ZM0 35.578v8.885h13.333v-8.885H0Zm66.667 0v8.885H80v-8.885H66.667ZM40 66.678a6.667 6.667 0 0 1 6.667 6.664c0 1.961-.868 3.714-2.223 4.929v6.178A4.452 4.452 0 0 1 40 88.892a4.452 4.452 0 0 1-4.444-4.443v-6.178c-1.355-1.215-2.223-2.968-2.223-4.929A6.667 6.667 0 0 1 40 66.678Z" fill="#22B4B4"/></svg>