<svg width="450" height="500" fill="none" xmlns="http://www.w3.org/2000/svg"><path d="M125 0C97.5 0 75 22.5 75 50v100c0 27.5 22.5 50 50 50h50l50 75 50-75h50c27.5 0 50-22.5 50-50V50c0-27.5-22.5-50-50-50H125Zm-25 275a50 50 0 1 0 0 99.999A50 50 0 0 0 100 275Zm250 0a49.997 49.997 0 0 0-50 50 49.997 49.997 0 0 0 50 50 49.997 49.997 0 0 0 50-50 49.997 49.997 0 0 0-50-50ZM100 400C45.375 400 0 422.72 0 455.42V500h200v-44.58c0-32.7-45.375-55.42-100-55.42Zm250 0c-54.625 0-100 22.72-100 55.42V500h200v-44.58c0-32.7-45.375-55.42-100-55.42Z" fill="#22B4B4"/></svg>