<svg width="39" height="39" fill="none" xmlns="http://www.w3.org/2000/svg"><path d="M4.5.75A3.757 3.757 0 0 0 .75 4.5v30a3.757 3.757 0 0 0 3.75 3.75h30a3.757 3.757 0 0 0 3.75-3.75v-30A3.757 3.757 0 0 0 34.5.75h-30ZM19.969 4.5c1.89 0 4.16 1.838 4.16 10.605 0 3.135-.916 7.8-2.695 11.543.776 1.055 1.516 1.524 2.05 1.524.725-.147 2.351-3.04 3.223-5.8.242-.763 1.018-1.18 1.758-.938.754.22 1.157 1.076.937 1.816-.74 2.351-2.805 7.793-5.918 7.793-.981 0-2.256-.476-3.515-1.758-1.428 2-3.238 3.34-5.332 3.34-4.431 0-6.387-4.036-6.387-7.5 0-3.684 1.882-7.148 5.977-7.148.688 0 1.318.146 1.875.351a49.186 49.186 0 0 1-.118-3.398c0-.11 0-10.43 3.985-10.43Zm.117 3.047c-.593 1.04-1.29 4.123-1.29 7.383 0 3.523.404 6.24.997 8.261.908-2.592 1.523-5.551 1.523-8.085 0-4.783-.783-6.893-1.23-7.56Zm-6.387 13.3c-2.534.506-2.578 4.615-2.578 4.805 0 1.238.308 4.102 3.516 4.102 1.237 0 2.497-1.172 3.574-2.988-.652-1.26-1.252-2.82-1.64-4.805-.096-.059-.177-.161-.235-.234 0 0-.908-.88-2.11-.88-.19 0-.358-.036-.527 0Z" fill="#fff"/></svg>