<svg width="36" height="36" fill="none" xmlns="http://www.w3.org/2000/svg"><path d="M32 0H4C1.79 0 0 1.79 0 4v28c0 2.21 1.79 4 4 4h28c2.21 0 4-1.79 4-4V4c0-2.21-1.79-4-4-4ZM12 28H6.954V14H12v14ZM9.388 11.434c-1.542 0-2.572-1.028-2.572-2.4 0-1.372 1.028-2.4 2.742-2.4 1.542 0 2.572 1.028 2.572 2.4 0 1.372-1.028 2.4-2.742 2.4ZM30 28h-4.884v-7.652c0-2.116-1.302-2.604-1.79-2.604s-2.116.326-2.116 2.604V28h-5.046V14h5.046v1.954c.65-1.14 1.952-1.954 4.394-1.954S30 15.954 30 20.348V28Z" fill="#fff"/></svg>