<svg width="94" height="93" fill="none" xmlns="http://www.w3.org/2000/svg"><mask id="a" style="mask-type:alpha" maskUnits="userSpaceOnUse" x="0" y="0" width="18" height="19"><path fill="#fff" d="M0 0h17.2v18.285H0z"/></mask><g mask="url(#a)"><path d="M15.7 18.285c.829 0 1.5-.66 1.5-1.474 0-.815-.671-1.475-1.5-1.475-.828 0-1.5.66-1.5 1.475 0 .814.672 1.474 1.5 1.474Z" fill="#22B4B4"/></g><mask id="b" style="mask-type:alpha" maskUnits="userSpaceOnUse" x="19" y="0" width="18" height="19"><path fill="#fff" d="M19 0h17.2v18.285H19z"/></mask><g mask="url(#b)"><path d="M34.7 18.285c.829 0 1.5-.66 1.5-1.474 0-.815-.671-1.475-1.5-1.475-.828 0-1.5.66-1.5 1.475 0 .814.672 1.474 1.5 1.474Z" fill="#22B4B4"/></g><mask id="c" style="mask-type:alpha" maskUnits="userSpaceOnUse" x="38" y="0" width="18" height="19"><path fill="#fff" d="M38 0h17.2v18.285H38z"/></mask><g mask="url(#c)"><path d="M53.7 18.285c.829 0 1.5-.66 1.5-1.474 0-.815-.671-1.475-1.5-1.475-.828 0-1.5.66-1.5 1.475 0 .814.672 1.474 1.5 1.474Z" fill="#22B4B4"/></g><mask id="d" style="mask-type:alpha" maskUnits="userSpaceOnUse" x="57" y="0" width="18" height="19"><path fill="#fff" d="M57 0h17.2v18.285H57z"/></mask><g mask="url(#d)"><path d="M72.7 18.285c.829 0 1.5-.66 1.5-1.474 0-.815-.671-1.475-1.5-1.475-.828 0-1.5.66-1.5 1.475 0 .814.672 1.474 1.5 1.474Z" fill="#22B4B4"/></g><mask id="e" style="mask-type:alpha" maskUnits="userSpaceOnUse" x="76" y="0" width="18" height="19"><path fill="#fff" d="M76 0h17.2v18.285H76z"/></mask><g mask="url(#e)"><path d="M91.7 18.285c.829 0 1.5-.66 1.5-1.474 0-.815-.671-1.475-1.5-1.475-.828 0-1.5.66-1.5 1.475 0 .814.672 1.474 1.5 1.474Z" fill="#22B4B4"/></g><mask id="f" style="mask-type:alpha" maskUnits="userSpaceOnUse" x="0" y="18" width="18" height="19"><path fill="#fff" d="M0 18.678h17.2v18.285H0z"/></mask><g mask="url(#f)"><path d="M15.7 36.963c.829 0 1.5-.66 1.5-1.475 0-.814-.671-1.474-1.5-1.474-.828 0-1.5.66-1.5 1.474 0 .815.672 1.475 1.5 1.475Z" fill="#22B4B4"/></g><mask id="g" style="mask-type:alpha" maskUnits="userSpaceOnUse" x="19" y="18" width="18" height="19"><path fill="#fff" d="M19 18.678h17.2v18.285H19z"/></mask><g mask="url(#g)"><path d="M34.7 36.963c.829 0 1.5-.66 1.5-1.475 0-.814-.671-1.474-1.5-1.474-.828 0-1.5.66-1.5 1.474 0 .815.672 1.475 1.5 1.475Z" fill="#22B4B4"/></g><mask id="h" style="mask-type:alpha" maskUnits="userSpaceOnUse" x="38" y="18" width="18" height="19"><path fill="#fff" d="M38 18.678h17.2v18.285H38z"/></mask><g mask="url(#h)"><path d="M53.7 36.963c.829 0 1.5-.66 1.5-1.475 0-.814-.671-1.474-1.5-1.474-.828 0-1.5.66-1.5 1.474 0 .815.672 1.475 1.5 1.475Z" fill="#22B4B4"/></g><mask id="i" style="mask-type:alpha" maskUnits="userSpaceOnUse" x="57" y="18" width="18" height="19"><path fill="#fff" d="M57 18.678h17.2v18.285H57z"/></mask><g mask="url(#i)"><path d="M72.7 36.963c.829 0 1.5-.66 1.5-1.475 0-.814-.671-1.474-1.5-1.474-.828 0-1.5.66-1.5 1.474 0 .815.672 1.475 1.5 1.475Z" fill="#22B4B4"/></g><mask id="j" style="mask-type:alpha" maskUnits="userSpaceOnUse" x="76" y="18" width="18" height="19"><path fill="#fff" d="M76 18.678h17.2v18.285H76z"/></mask><g mask="url(#j)"><path d="M91.7 36.963c.829 0 1.5-.66 1.5-1.475 0-.814-.671-1.474-1.5-1.474-.828 0-1.5.66-1.5 1.474 0 .815.672 1.475 1.5 1.475Z" fill="#22B4B4"/></g><mask id="k" style="mask-type:alpha" maskUnits="userSpaceOnUse" x="0" y="37" width="18" height="19"><path fill="#fff" d="M0 37.357h17.2v18.285H0z"/></mask><g mask="url(#k)"><path d="M15.7 55.643c.829 0 1.5-.66 1.5-1.475 0-.814-.671-1.475-1.5-1.475-.828 0-1.5.66-1.5 1.475 0 .814.672 1.475 1.5 1.475Z" fill="#22B4B4"/></g><mask id="l" style="mask-type:alpha" maskUnits="userSpaceOnUse" x="19" y="37" width="18" height="19"><path fill="#fff" d="M19 37.357h17.2v18.285H19z"/></mask><g mask="url(#l)"><path d="M34.7 55.643c.829 0 1.5-.66 1.5-1.475 0-.814-.671-1.475-1.5-1.475-.828 0-1.5.66-1.5 1.475 0 .814.672 1.475 1.5 1.475Z" fill="#22B4B4"/></g><mask id="m" style="mask-type:alpha" maskUnits="userSpaceOnUse" x="38" y="37" width="18" height="19"><path fill="#fff" d="M38 37.357h17.2v18.285H38z"/></mask><g mask="url(#m)"><path d="M53.7 55.643c.829 0 1.5-.66 1.5-1.475 0-.814-.671-1.475-1.5-1.475-.828 0-1.5.66-1.5 1.475 0 .814.672 1.475 1.5 1.475Z" fill="#22B4B4"/></g><mask id="n" style="mask-type:alpha" maskUnits="userSpaceOnUse" x="57" y="37" width="18" height="19"><path fill="#fff" d="M57 37.357h17.2v18.285H57z"/></mask><g mask="url(#n)"><path d="M72.7 55.643c.829 0 1.5-.66 1.5-1.475 0-.814-.671-1.475-1.5-1.475-.828 0-1.5.66-1.5 1.475 0 .814.672 1.475 1.5 1.475Z" fill="#22B4B4"/></g><mask id="o" style="mask-type:alpha" maskUnits="userSpaceOnUse" x="76" y="37" width="18" height="19"><path fill="#fff" d="M76 37.357h17.2v18.285H76z"/></mask><g mask="url(#o)"><path d="M91.7 55.643c.829 0 1.5-.66 1.5-1.475 0-.814-.671-1.475-1.5-1.475-.828 0-1.5.66-1.5 1.475 0 .814.672 1.475 1.5 1.475Z" fill="#22B4B4"/></g><mask id="p" style="mask-type:alpha" maskUnits="userSpaceOnUse" x="0" y="56" width="18" height="19"><path fill="#fff" d="M0 56.035h17.2V74.32H0z"/></mask><g mask="url(#p)"><path d="M15.7 74.32c.829 0 1.5-.66 1.5-1.474 0-.815-.671-1.475-1.5-1.475-.828 0-1.5.66-1.5 1.475 0 .814.672 1.474 1.5 1.474Z" fill="#22B4B4"/></g><mask id="q" style="mask-type:alpha" maskUnits="userSpaceOnUse" x="19" y="56" width="18" height="19"><path fill="#fff" d="M19 56.035h17.2V74.32H19z"/></mask><g mask="url(#q)"><path d="M34.7 74.32c.829 0 1.5-.66 1.5-1.474 0-.815-.671-1.475-1.5-1.475-.828 0-1.5.66-1.5 1.475 0 .814.672 1.474 1.5 1.474Z" fill="#22B4B4"/></g><mask id="r" style="mask-type:alpha" maskUnits="userSpaceOnUse" x="38" y="56" width="18" height="19"><path fill="#fff" d="M38 56.035h17.2V74.32H38z"/></mask><g mask="url(#r)"><path d="M53.7 74.32c.829 0 1.5-.66 1.5-1.474 0-.815-.671-1.475-1.5-1.475-.828 0-1.5.66-1.5 1.475 0 .814.672 1.474 1.5 1.474Z" fill="#22B4B4"/></g><mask id="s" style="mask-type:alpha" maskUnits="userSpaceOnUse" x="57" y="56" width="18" height="19"><path fill="#fff" d="M57 56.035h17.2V74.32H57z"/></mask><g mask="url(#s)"><path d="M72.7 74.32c.829 0 1.5-.66 1.5-1.474 0-.815-.671-1.475-1.5-1.475-.828 0-1.5.66-1.5 1.475 0 .814.672 1.474 1.5 1.474Z" fill="#22B4B4"/></g><mask id="t" style="mask-type:alpha" maskUnits="userSpaceOnUse" x="76" y="56" width="18" height="19"><path fill="#fff" d="M76 56.035h17.2V74.32H76z"/></mask><g mask="url(#t)"><path d="M91.7 74.32c.829 0 1.5-.66 1.5-1.474 0-.815-.671-1.475-1.5-1.475-.828 0-1.5.66-1.5 1.475 0 .814.672 1.474 1.5 1.474Z" fill="#22B4B4"/></g><mask id="u" style="mask-type:alpha" maskUnits="userSpaceOnUse" x="0" y="74" width="18" height="19"><path fill="#fff" d="M0 74.715h17.2V93H0z"/></mask><g mask="url(#u)"><path d="M15.7 93c.829 0 1.5-.66 1.5-1.475 0-.814-.671-1.474-1.5-1.474-.828 0-1.5.66-1.5 1.474 0 .815.672 1.475 1.5 1.475Z" fill="#22B4B4"/></g><mask id="v" style="mask-type:alpha" maskUnits="userSpaceOnUse" x="19" y="74" width="18" height="19"><path fill="#fff" d="M19 74.715h17.2V93H19z"/></mask><g mask="url(#v)"><path d="M34.7 93c.829 0 1.5-.66 1.5-1.475 0-.814-.671-1.474-1.5-1.474-.828 0-1.5.66-1.5 1.474 0 .815.672 1.475 1.5 1.475Z" fill="#22B4B4"/></g><mask id="w" style="mask-type:alpha" maskUnits="userSpaceOnUse" x="38" y="74" width="18" height="19"><path fill="#fff" d="M38 74.715h17.2V93H38z"/></mask><g mask="url(#w)"><path d="M53.7 93c.829 0 1.5-.66 1.5-1.475 0-.814-.671-1.474-1.5-1.474-.828 0-1.5.66-1.5 1.474 0 .815.672 1.475 1.5 1.475Z" fill="#22B4B4"/></g><mask id="x" style="mask-type:alpha" maskUnits="userSpaceOnUse" x="57" y="74" width="18" height="19"><path fill="#fff" d="M57 74.715h17.2V93H57z"/></mask><g mask="url(#x)"><path d="M72.7 93c.829 0 1.5-.66 1.5-1.475 0-.814-.671-1.474-1.5-1.474-.828 0-1.5.66-1.5 1.474 0 .815.672 1.475 1.5 1.475Z" fill="#22B4B4"/></g><mask id="y" style="mask-type:alpha" maskUnits="userSpaceOnUse" x="76" y="74" width="18" height="19"><path fill="#fff" d="M76 74.715h17.2V93H76z"/></mask><g mask="url(#y)"><path d="M91.7 93c.829 0 1.5-.66 1.5-1.475 0-.814-.671-1.474-1.5-1.474-.828 0-1.5.66-1.5 1.474 0 .815.672 1.475 1.5 1.475Z" fill="#22B4B4"/></g></svg>