<svg width="40" height="40" fill="none" xmlns="http://www.w3.org/2000/svg"><path d="M20 0C8.953 0 0 8.953 0 20s8.953 20 20 20 20-8.953 20-20S31.047 0 20 0Zm0 4c8.82 0 16 7.18 16 16 0 .938-.094 1.86-.25 2.75a9.93 9.93 0 0 0-2.063-.25c-.624-.008-1.406.094-2.062.188.227-.696.375-1.461.375-2.25 0-1.922-.938-3.711-2.438-5.188.415-1.54.82-4.18-.25-5.25-3.164 0-4.914 2.258-5 2.375A12.994 12.994 0 0 0 21.25 12c-1.383 0-2.703.25-3.938.625l.375-.313s-1.757-2.437-5-2.437c-1.132 1.14-.617 4.031-.187 5.5-1.531 1.46-2.5 3.188-2.5 5.063 0 .656.156 1.28.313 1.875-.555-.063-2.555-.25-3.376-.25-.726 0-1.851.171-2.75.375A15.707 15.707 0 0 1 4 20c0-8.82 7.18-16 16-16ZM6.937 22.563c.79 0 3.188.28 3.5.312.04.11.079.21.126.313-.86-.079-2.524-.196-3.626-.063-.734.086-1.671.352-2.5.563-.062-.25-.14-.493-.187-.75.875-.188 2.023-.375 2.688-.375Zm26.75.437c.797.008 1.524.14 2 .25-.023.133-.093.242-.124.375a11.525 11.525 0 0 0-2.313-.313 24.097 24.097 0 0 0-1.875.063c.031-.063.04-.125.063-.188.68-.093 1.546-.195 2.25-.187Zm-25.5.563a34.86 34.86 0 0 1 2.626.125c1.046 1.953 3.164 3.398 6.437 4a6.383 6.383 0 0 0-2.063 1.812c-.468.04-.96.063-1.437.063-1.39 0-2.258-1.243-3-2.313C10 26.18 9.078 26.062 8.562 26c-.523-.063-.703.234-.437.438 1.523 1.171 2.07 2.562 2.688 3.812.554 1.125 1.718 1.75 3 1.75h.25c-.04.219-.063.422-.063.625v2.188a15.985 15.985 0 0 1-9.438-10.688c.82-.203 1.743-.414 2.438-.5.32-.04.727-.07 1.188-.063Zm25.063.25c.898.023 1.695.195 2.188.312-1.102 4.14-3.82 7.586-7.438 9.688v-1.188c0-1.703-1.344-3.89-3.25-4.938 3.164-.578 5.227-1.96 6.313-3.812a24.803 24.803 0 0 1 2.187-.063ZM21 32c.547 0 1 .453 1 1v2.875c-.656.086-1.32.125-2 .125v-3c0-.547.453-1 1-1Zm-4 2c.547 0 1 .453 1 1v.875a17.014 17.014 0 0 1-2-.375V35c0-.547.453-1 1-1Zm8 0c.484 0 .906.352 1 .813-.648.265-1.313.507-2 .687V35c0-.547.453-1 1-1Z" fill="#fff"/></svg>