<svg width="450" height="500" fill="none" xmlns="http://www.w3.org/2000/svg"><path d="M400 50H295.4C285.075 20.925 257.6 0 225 0c-32.6 0-60.075 20.925-70.4 50H50C22.375 50 0 72.375 0 100v350c0 27.625 22.375 50 50 50h350c27.625 0 50-22.375 50-50V100c0-27.625-22.375-50-50-50ZM225 400H75v-50h150v50Zm0-150H75v-50h150v50Zm0-150c-13.8 0-25-11.2-25-25s11.2-25 25-25 25 11.2 25 25-11.2 25-25 25Zm110.35 300H275v-50h39.65l50-50L400 335.35 335.35 400Zm0-150H275v-50h39.65l50-50L400 185.35 335.35 250Z" fill="#22B4B4"/></svg>