<svg width="450" height="550" fill="none" xmlns="http://www.w3.org/2000/svg"><path d="M225 0c-32.617 0-59.961 20.898-70.312 50H50C22.363 50 0 72.363 0 100v400c0 27.637 22.363 50 50 50h350c27.637 0 50-22.363 50-50V100c0-27.637-22.363-50-50-50H295.312C284.961 20.898 257.617 0 225 0Zm0 50c13.77 0 25 11.23 25 25s-11.23 25-25 25-25-11.23-25-25 11.23-25 25-25ZM50 100h50v50h250v-50h50v400H50V100Zm44.531 75-18.75 19.531L106.25 225l-30.469 31.25L94.531 275 125 243.75 155.469 275l18.75-18.75L143.75 225l30.469-30.469L155.469 175 125 206.25 94.531 175Zm192.969 0L250 225h25v25h25v-25h25l-37.5-50Zm0 100c-20.703 0-37.5 16.797-37.5 37.5s16.797 37.5 37.5 37.5 37.5-16.797 37.5-37.5-16.797-37.5-37.5-37.5Zm-52.344 57.812L150 401.562l15.625 19.532L250 353.125l-14.844-20.313ZM294.531 375l-18.75 18.75L306.25 425l-30.469 31.25 18.75 18.75L325 443.75 356.25 475 375 456.25 344.531 425 375 393.75 356.25 375 325 406.25 294.531 375ZM112.5 400C91.797 400 75 416.797 75 437.5S91.797 475 112.5 475s37.5-16.797 37.5-37.5-16.797-37.5-37.5-37.5Z" fill="#22B4B4"/></svg>