<svg width="500" height="500" fill="none" xmlns="http://www.w3.org/2000/svg"><path d="M104.167 62.5c-22.98 0-41.667 18.688-41.667 41.667v291.666c0 22.979 18.688 41.667 41.667 41.667h104.166v-41.667H104.167V187.5h291.666v41.667H437.5v-125c0-22.98-18.688-41.667-41.667-41.667H104.167ZM125 104.167c11.5 0 20.833 9.333 20.833 20.833 0 11.5-9.333 20.833-20.833 20.833-11.5 0-20.833-9.333-20.833-20.833 0-11.5 9.333-20.833 20.833-20.833Zm62.5 0c11.5 0 20.833 9.333 20.833 20.833 0 11.5-9.333 20.833-20.833 20.833-11.5 0-20.833-9.333-20.833-20.833 0-11.5 9.333-20.833 20.833-20.833Zm62.5 0h145.833v41.666H250v-41.666ZM375.041 250c-41.709 0-41.626 41.667-41.626 41.667-6.623 0-15.275 8.022-23.031 20.833H250v41.667h44.8c-1.343 6.655-2.2 13.606-2.604 20.833H250v41.667h44.108c1.051 7.407 2.353 14.459 4.11 20.833H250v41.667h70.353c13.676 14.047 31.7 20.833 52.938 20.833H375c24.502 0 43.422-6.643 57.007-20.833H500V437.5h-47.282c1.546-6.361 2.646-13.414 3.54-20.833H500V375h-42.196c-.403-7.227-1.264-14.178-2.604-20.833H500V312.5h-60.343c-7.74-12.811-16.376-20.833-22.99-20.833 0 0 .061-41.667-41.626-41.667Zm-28.89 83.333H403.89c5.312 8.709 12.777 26.643 12.777 49.602 0 75.416-22.146 75.398-41.667 75.398h-1.709c-10.937 0-39.958.018-39.958-75.398 0-22.959 7.484-40.893 12.818-49.602Z" fill="#22B4B4"/></svg>