<svg width="395" height="413" fill="none" xmlns="http://www.w3.org/2000/svg"><path d="M188 .354 19.103 98.864C7.63 105.558.5 118 .5 131.274V319.25c0 20.681 16.819 37.5 37.5 37.5h225v-75.146s0-37.495 37.5-60.389c0-18.431 14.949-33.361 33.362-33.361H375.5v-56.58c0-13.275-7.129-25.716-18.604-32.41L188 .354Zm0 43.432 150 87.488v.915L188 225.5 38 132.153v-.879l150-87.488ZM338 225.5v19.739c-10.114 2.149-32.3 9.973-32.3 39.587 0 50.4 57.129 35.467 57.129 69.104 0 16.838-11.937 17.249-14.355 17.249-2.213 0-16.773 1.08-16.773-24.683H300.5c0 43.631 34.651 47.098 39.807 47.754H338V413h18.75v-18.75h.146c5.588-.638 37.134-5.384 37.134-40.503 0-48.356-57.11-39.074-57.129-68.774 0-17.007 10.239-17.542 12.452-17.542 4.031 0 13.696 3.268 13.696 23.987h31.201c0-39.619-29.649-45.828-34.937-46.765l-2.563-.073V225.5H338Z" fill="#22B4B4"/></svg>