<svg width="450" height="495" fill="none" xmlns="http://www.w3.org/2000/svg"><path d="M45 0C20.183 0 0 20.183 0 45v360c0 24.818 20.183 45 45 45h140.845c-4.95-7.087-9.251-14.625-13.008-22.5h.044c-.09-.18-.174-.369-.264-.571-2.88-6.12-5.29-12.46-7.383-18.985-4.882-15.12-7.734-31.181-7.734-47.944 0-86.985 70.515-157.5 157.5-157.5 7.65 0 15.142.744 22.5 1.802v-.132a161.381 161.381 0 0 1 22.5 4.966V135L225 0H45Zm157.5 32.74L326.25 157.5H202.5V32.74ZM315 247.5c-63 0-112.5 49.5-112.5 112.5S252 472.5 315 472.5c22.5 0 45.018-6.768 63.018-18.018L418.491 495 450 463.491l-40.518-40.473c11.25-18 18.018-40.518 18.018-63.018 0-63-49.5-112.5-112.5-112.5Zm0 45c38.25 0 67.5 29.25 67.5 67.5s-29.25 67.5-67.5 67.5-67.5-29.25-67.5-67.5 29.25-67.5 67.5-67.5Z" fill="#22B4B4"/></svg>