<svg width="450" height="410" fill="none" xmlns="http://www.w3.org/2000/svg"><path d="M40.91 0C19.963 0 2.872 15.804.48 36.115l204.065 127.521 204.067-127.52C406.218 15.803 389.127 0 368.182 0H40.909ZM0 76.745v209.619c0 22.602 18.307 40.909 40.91 40.909h145.418c-1.125-6.178-1.993-12.324-2.197-18.337-1.023-28.944 9.761-58.005 28.804-77.744 16.589-17.182 38.718-26.647 62.322-26.647 23.38 0 45.548 9.486 62.403 26.647 16.2 16.528 24.884 37.007 28.484 55.212 14.83-.409 29.08 4.861 40.35 13.902 1.596-4.377 2.597-9.033 2.597-13.942V76.744L204.545 204.546 0 76.745Zm275.257 168.71c-18.432 0-33.165 11.894-40.549 24.209s-10.157 25.401-9.708 37.873c.646 18.447 7.996 35.562 17.378 51.296-6.059 2.829-12.725 9.349-17.378 9.349v40.909c17.105 0 32.119-6.846 45.943-15.82 10.973 8.952 23.209 15.82 38.432 15.82 24.804 0 41.286-16.587 50.617-27.925.491-.597.65-.743 1.119-1.319 8.542 13.004 24.205 29.244 47.98 29.244 0 0 9.383.282 19.376-4.714 9.992-4.996 21.533-19.15 21.533-36.195h-40.909c-4.869 0-9.388-3.743-14.142-11.106-4.755-7.364-7.112-15.062-7.112-15.062a20.452 20.452 0 0 0-19.655-14.741c-12.267 0-21.176 6.895-26.687 12.424-5.51 5.529-9.312 10.943-13.064 15.501-7.502 9.116-11.48 12.984-19.056 12.984-.73 0-4.575-3.925-6.272-4.674 13.366-16.709 23.775-35.369 24.17-56.29v-.04c.227-12.46-3.187-24.967-10.827-37.154-7.64-12.187-22.123-24.569-41.189-24.569Zm0 40.909c2.188 0 3.618.776 6.512 5.393 2.894 4.617 4.634 12.557 4.595 14.702-.101 4.929-7.188 13.771-11.386 21.653-3.269-7.797-8.854-15.86-9.069-22.013-.144-4.014 1.466-11.363 3.875-15.381 2.409-4.018 2.879-4.354 5.473-4.354Z" fill="#22B4B4"/></svg>