<svg width="450" height="457" fill="none" xmlns="http://www.w3.org/2000/svg"><path d="M161.14 0a10.35 10.35 0 0 0-10.171 8.389l-8.551 43.969c-17.03 6.44-32.776 15.436-46.604 26.787L53.628 64.596c-4.689-1.597-9.87.325-12.36 4.62L1.392 138.27c-2.49 4.295-1.567 9.751 2.188 13.009l33.798 29.38c-1.427 8.755-2.35 17.669-2.35 26.827 0 9.162.836 18.122 2.269 26.868L3.58 263.694c-3.755 3.258-4.678 8.713-2.188 13.008l39.876 69.054a10.372 10.372 0 0 0 12.36 4.62l42.632-14.71c12.759 10.373 27.03 18.958 42.511 25.247v-70.432c0-8.403 1.607-16.355 3.931-23.991-15.23-15.063-24.68-35.911-24.68-59.004 0-45.833 37.161-82.994 82.995-82.994 45.833 0 82.994 37.161 82.994 82.994h82.994c0-9.158-.923-18.072-2.35-26.827l33.798-29.38c3.755-3.258 4.678-8.714 2.188-13.009l-39.876-69.054a10.373 10.373 0 0 0-12.36-4.62l-42.186 14.549c-13.828-11.35-29.574-20.347-46.604-26.787l-8.551-43.97A10.35 10.35 0 0 0 240.893 0H161.14Zm60.625 248.984c-22.927 0-41.497 18.57-41.497 41.497V456.47H450V290.481c0-22.927-18.57-41.497-41.497-41.497H221.765Zm136.649 41.497 29.34 29.34-74.403 74.403h-70.837v-41.497h53.654l62.246-62.246Z" fill="#22B4B4"/></svg>