<svg width="460" height="429" fill="none" xmlns="http://www.w3.org/2000/svg"><path d="M222.122.711c-36.702 2.596-71.973 23.096-91.667 57.292-27.661 47.892-16.292 107.959 23.633 143.229l-38.672 66.602c-15.755.089-30.973 8.235-39.388 22.916-12.622 21.932-5.46 49.593 16.472 62.305 21.932 12.622 49.682 5.461 62.304-16.471 8.415-14.681 7.878-32.137 0-45.834l60.873-104.557-20.052-11.458c-32.854-18.978-44.043-60.962-25.065-93.815 18.977-32.854 60.961-44.043 93.815-25.066 32.853 18.978 44.043 60.962 25.065 93.816l40.104 22.916c31.6-54.695 12.443-125.236-42.253-156.836C266.792 3.934 244.144-.81 222.122.711Zm2.149 68.75a45.39 45.39 0 0 0-17.188 5.73c-21.932 12.621-29.093 41.088-16.471 63.02 8.414 14.681 23.632 22.827 39.388 22.917l60.156 104.557 20.052-11.458c32.853-18.978 74.837-7.788 93.815 25.065 18.978 32.853 7.788 74.837-25.065 93.815-32.853 18.978-74.837 7.788-93.815-25.065l-40.104 22.917c31.6 54.695 102.14 73.852 156.836 42.252 54.695-31.6 73.852-102.14 42.252-156.836-27.661-47.892-85.49-68.481-136.067-51.562l-38.672-66.602c7.877-13.696 8.414-31.152 0-45.833-9.489-16.471-27.393-25.155-45.117-22.917ZM115.416 199.084c-63.2 0-114.583 51.383-114.583 114.583 0 63.2 51.384 114.583 114.583 114.583 55.323 0 101.783-39.477 112.435-91.666h77.344c7.967 13.606 22.469 22.916 39.388 22.916 25.334 0 45.833-20.499 45.833-45.833s-20.499-45.833-45.833-45.833c-16.919 0-31.421 9.31-39.388 22.916H184.166v22.917c0 37.866-30.883 68.75-68.75 68.75-37.866 0-68.75-30.884-68.75-68.75s30.884-68.75 68.75-68.75v-45.833Z" fill="#22B4B4"/></svg>