<svg width="450" height="385" fill="none" xmlns="http://www.w3.org/2000/svg"><path d="M118.712 0a59.356 59.356 0 1 0 0 118.713 59.356 59.356 0 0 0 0-118.713Zm197.853 0a59.355 59.355 0 1 0 0 118.71 59.355 59.355 0 0 0 0-118.71ZM118.712 158.283C48.87 158.283 0 184.413 0 222.005v54.989h158.283v-54.989c0-21.368 7.515-40.17 21.562-55.801-17.411-5.144-38.182-7.921-61.133-7.921Zm197.853 0c-43.33 0-78.548 10.082-98.927 26.702-12.662 9.893-19.785 22.775-19.785 37.02v54.989h72.611L380.288 167.17c-18.005-5.737-39.585-8.887-63.723-8.887Zm103.989 85.671-75.084 83.431-34.701-34.701-27.978 27.977 64.225 64.225L450 270.464l-29.446-26.51Z" fill="#22B4B4"/></svg>